<?xml version="1.0" standalone="no"?>
<!DOCTYPE svg PUBLIC "-//W3C//DTD SVG 20010904//EN"
 "http://www.w3.org/TR/2001/REC-SVG-20010904/DTD/svg10.dtd">
<svg version="1.0" xmlns="http://www.w3.org/2000/svg"
 width="2850.000000pt" height="1134.000000pt" viewBox="0 0 2850.000000 1134.000000"
 preserveAspectRatio="xMidYMid meet">

<g transform="translate(0.000000,1134.000000) scale(0.100000,-0.100000)"
fill="#000000" stroke="none">
<path d="M1429 8820 c-430 -29 -697 -150 -858 -389 -126 -186 -182 -427 -201
-863 -13 -292 -12 -1909 0 -2198 16 -356 52 -560 131 -728 134 -290 357 -437
754 -498 110 -17 189 -19 950 -19 884 0 906 1 1113 50 412 98 627 356 696 835
34 230 38 418 33 1575 -4 1204 -4 1212 -52 1463 -73 384 -290 623 -650 717
-212 55 -259 58 -1060 60 -407 2 -792 -1 -856 -5z m1350 -524 c196 -38 302
-133 355 -318 47 -160 49 -209 53 -1378 6 -1388 -2 -1534 -88 -1720 -37 -81
-113 -160 -183 -190 -113 -48 -165 -53 -636 -57 -472 -5 -610 2 -724 37 -169
52 -255 170 -303 410 -15 76 -17 213 -20 1305 -3 850 -1 1258 7 1345 37 412
153 546 503 580 51 4 286 7 522 5 347 -2 446 -6 514 -19z"/>
<path d="M4461 8808 c7 -13 289 -507 627 -1098 338 -591 617 -1081 619 -1090
2 -9 -311 -573 -696 -1253 -386 -681 -701 -1240 -701 -1243 0 -2 148 -4 328
-4 l328 0 545 976 c299 537 549 982 554 990 7 9 143 -259 494 -977 l484 -989
509 0 508 0 -29 53 c-112 202 -1301 2439 -1301 2448 0 6 278 496 619 1088 340
592 623 1086 630 1099 l12 22 -334 0 -333 0 -465 -836 c-255 -460 -469 -843
-475 -851 -8 -11 -111 173 -458 824 -247 461 -453 844 -459 851 -7 9 -122 12
-514 12 l-504 0 12 -22z"/>
<path d="M8220 8818 c0 -6 333 -1089 740 -2406 l741 -2394 -261 -877 c-143
-482 -260 -880 -260 -884 0 -4 186 -7 413 -7 l412 0 988 3283 c543 1805 987
3285 987 3290 0 4 -182 7 -404 7 -376 0 -404 -1 -408 -17 -88 -324 -1053
-3780 -1058 -3786 -4 -4 -232 849 -507 1895 l-500 1903 -442 3 c-336 2 -441
-1 -441 -10z"/>
<path d="M7478 1420 c-14 -25 -24 -30 -53 -30 -20 0 -58 11 -85 25 -71 36
-114 33 -156 -9 -39 -39 -47 -86 -14 -86 12 0 26 12 35 30 13 25 22 30 51 30
19 0 51 -8 72 -19 57 -29 96 -34 133 -18 41 17 65 43 74 80 6 24 4 27 -16 27
-16 0 -30 -10 -41 -30z"/>
<path d="M411 1175 c-105 -30 -160 -81 -187 -173 -14 -47 -15 -66 -6 -111 21
-99 80 -138 289 -192 201 -51 251 -84 260 -172 6 -58 -21 -106 -77 -137 -40
-22 -56 -25 -150 -24 -118 0 -181 19 -269 79 l-49 34 -21 -32 c-25 -39 -17
-51 67 -95 93 -49 165 -66 277 -65 204 1 315 84 315 236 0 139 -61 188 -314
253 -201 53 -242 81 -240 173 1 100 65 152 193 159 96 6 169 -11 231 -53 l49
-33 20 34 20 34 -42 28 c-23 16 -62 37 -87 47 -62 24 -208 30 -279 10z"/>
<path d="M1779 1177 c-148 -42 -270 -181 -305 -349 -32 -155 18 -319 133 -430
158 -153 404 -150 558 7 145 148 176 366 79 558 -39 76 -138 170 -210 197 -71
27 -190 35 -255 17z m199 -82 c72 -22 160 -104 198 -187 26 -57 29 -73 29
-173 0 -98 -3 -116 -27 -167 -35 -76 -98 -142 -167 -175 -75 -37 -183 -39
-251 -4 -70 37 -112 74 -147 133 -71 118 -81 263 -25 382 79 168 225 240 390
191z"/>
<path d="M5890 1177 c-220 -64 -355 -293 -306 -523 39 -190 170 -329 341 -364
103 -21 157 -98 105 -150 -23 -23 -72 -26 -132 -8 -33 10 -41 9 -49 -3 -17
-26 -9 -36 39 -50 62 -18 129 -16 168 4 61 31 69 119 17 171 -14 14 -24 28
-22 29 2 2 31 11 64 21 33 10 84 33 113 52 50 33 112 104 112 129 0 6 -14 18
-32 26 -32 16 -32 16 -63 -25 -90 -120 -260 -158 -388 -88 -67 36 -141 120
-168 190 -33 82 -32 223 1 307 34 88 126 177 205 200 137 40 293 -14 354 -123
9 -16 12 -16 45 2 l35 19 -17 29 c-28 49 -118 125 -169 143 -64 22 -196 29
-253 12z"/>
<path d="M7239 1177 c-148 -42 -270 -181 -305 -349 -32 -155 18 -319 133 -430
158 -153 404 -150 558 7 145 148 176 366 79 558 -39 76 -138 170 -210 197 -71
27 -190 35 -255 17z m199 -82 c72 -22 160 -104 198 -187 26 -57 29 -73 29
-173 0 -98 -3 -116 -27 -167 -35 -76 -98 -142 -167 -175 -75 -37 -183 -39
-251 -4 -70 37 -112 74 -147 133 -71 118 -81 263 -25 382 79 168 225 240 390
191z"/>
<path d="M9861 1175 c-105 -30 -160 -81 -187 -173 -14 -47 -15 -66 -6 -111 21
-99 80 -138 289 -192 201 -51 251 -84 260 -172 6 -58 -21 -106 -77 -137 -40
-22 -56 -25 -150 -24 -118 0 -181 19 -269 79 l-49 34 -21 -32 c-25 -39 -17
-51 67 -95 93 -49 165 -66 277 -65 204 1 315 84 315 236 0 139 -61 188 -314
253 -201 53 -242 81 -240 173 1 100 65 152 193 159 96 6 169 -11 231 -53 l49
-33 20 34 20 34 -42 28 c-23 16 -62 37 -87 47 -62 24 -208 30 -279 10z"/>
<path d="M18240 1177 c-220 -64 -355 -293 -306 -523 39 -189 170 -329 339
-364 135 -28 311 37 388 142 37 52 36 61 -3 79 -32 16 -32 16 -63 -25 -90
-120 -260 -158 -388 -88 -67 36 -141 120 -168 190 -33 82 -32 223 1 307 34 88
126 177 205 200 137 40 293 -14 354 -123 9 -16 12 -16 45 2 l35 19 -17 29
c-28 49 -118 125 -169 143 -64 22 -196 29 -253 12z"/>
<path d="M21089 1177 c-148 -42 -270 -181 -305 -349 -32 -155 18 -319 133
-430 158 -153 404 -150 558 7 145 148 176 366 79 558 -39 76 -138 170 -210
197 -71 27 -190 35 -255 17z m199 -82 c72 -22 160 -104 198 -187 26 -57 29
-73 29 -173 0 -98 -3 -116 -27 -167 -35 -76 -98 -142 -167 -175 -75 -37 -183
-39 -251 -4 -70 37 -112 74 -147 133 -71 118 -81 263 -25 382 79 168 225 240
390 191z"/>
<path d="M23739 1177 c-148 -42 -270 -181 -305 -349 -32 -155 18 -319 133
-430 158 -153 404 -150 558 7 145 148 176 366 79 558 -39 76 -138 170 -210
197 -71 27 -190 35 -255 17z m199 -82 c72 -22 160 -104 198 -187 26 -57 29
-73 29 -173 0 -98 -3 -116 -27 -167 -35 -76 -98 -142 -167 -175 -75 -37 -183
-39 -251 -4 -70 37 -112 74 -147 133 -71 118 -81 263 -25 382 79 168 225 240
390 191z"/>
<path d="M25165 1170 c-197 -64 -326 -297 -282 -513 40 -196 172 -335 351
-368 99 -18 217 16 293 85 22 20 43 36 47 36 3 0 6 -27 6 -60 l0 -60 35 0 35
0 0 220 0 220 -135 0 -135 0 0 -35 0 -35 100 0 100 0 0 -73 0 -73 -47 -46
c-73 -71 -142 -101 -233 -102 -97 -1 -167 31 -239 109 -165 181 -117 496 94
608 33 18 57 22 135 22 87 0 100 -3 149 -30 32 -18 69 -49 89 -77 l35 -46 33
21 c30 20 31 23 19 48 -8 14 -39 49 -70 77 -95 87 -244 115 -380 72z"/>
<path d="M2970 735 l0 -445 305 0 305 0 0 40 0 40 -260 0 -260 0 0 405 0 405
-45 0 -45 0 0 -445z"/>
<path d="M4160 923 c0 -288 9 -356 60 -460 59 -119 160 -176 315 -176 204 0
326 106 366 317 5 27 9 167 9 312 l0 264 -44 0 -45 0 -3 -299 -3 -298 -35 -69
c-62 -121 -161 -169 -299 -146 -78 13 -135 50 -173 112 -51 83 -58 138 -58
432 l0 268 -45 0 -45 0 0 -257z"/>
<path d="M8430 735 l0 -445 300 0 300 0 0 40 0 40 -255 0 -255 0 0 170 0 170
220 0 220 0 0 35 0 35 -220 0 -220 0 0 165 0 165 250 0 250 0 0 35 0 35 -295
0 -295 0 0 -445z"/>
<path d="M11790 735 l0 -445 300 0 300 0 0 40 0 40 -255 0 -255 0 0 170 0 170
220 0 220 0 0 35 0 35 -220 0 -220 0 0 165 0 165 250 0 250 0 0 35 0 35 -295
0 -295 0 0 -445z"/>
<path d="M13060 735 l0 -445 45 0 45 0 2 361 3 360 142 -248 c194 -338 179
-315 210 -311 23 3 45 37 182 276 l156 273 3 -355 2 -356 45 0 45 0 0 446 0
445 -46 -3 -46 -3 -171 -297 c-94 -164 -173 -298 -176 -298 -3 0 -82 135 -175
300 l-170 300 -48 0 -48 0 0 -445z"/>
<path d="M15370 1145 l0 -35 160 0 160 0 0 -410 0 -410 45 0 45 0 0 410 0 410
160 0 160 0 0 35 0 35 -365 0 -365 0 0 -35z"/>
<path d="M16730 735 l0 -445 300 0 300 0 0 40 0 40 -255 0 -255 0 0 170 0 170
220 0 220 0 0 35 0 35 -220 0 -220 0 0 165 0 165 250 0 250 0 0 35 0 35 -295
0 -295 0 0 -445z"/>
<path d="M19350 735 l0 -445 45 0 45 0 0 361 c0 288 3 359 13 351 6 -6 136
-168 287 -361 l275 -350 43 0 42 -1 0 445 0 445 -45 0 -45 0 -2 -366 -3 -366
-288 366 -288 366 -40 0 -39 0 0 -445z"/>
<path d="M22280 735 l0 -445 305 0 305 0 0 40 0 40 -260 0 -260 0 0 405 0 405
-45 0 -45 0 0 -445z"/>
<path d="M26330 735 l0 -445 45 0 45 0 0 445 0 445 -45 0 -45 0 0 -445z"/>
<path d="M27410 1138 c-46 -106 -350 -838 -350 -843 0 -3 21 -5 46 -3 l46 3
55 137 56 138 202 0 202 0 58 -140 57 -140 45 0 c39 0 44 2 39 18 -4 9 -86
209 -184 445 l-177 427 -38 0 c-35 0 -39 -3 -57 -42z m145 -273 c43 -104 80
-198 82 -207 5 -17 -8 -18 -171 -18 -97 0 -176 4 -176 9 0 5 35 94 78 197 43
104 82 198 86 208 4 11 10 16 15 10 5 -5 44 -94 86 -199z"/>
</g>
</svg>
